<svg width="112" height="50" viewBox="0 0 112 50" fill="none" xmlns="http://www.w3.org/2000/svg">
<path d="M16.9014 16.1992H25.4074L43.3072 33.0629L25.4074 50.0001H16.9014L34.8011 33.0629L16.9014 16.1992Z" fill="#F22178"/>
<path d="M17.8258 33.8009L0 16.8636L17.8258 0H26.3319L8.43212 16.8636L26.3319 33.8009H17.8258Z" fill="#1598CC"/>
<path d="M57.0653 35.0533C55.6555 35.0533 54.3323 34.8296 53.096 34.3822C51.8596 33.9134 50.7968 33.221 49.9075 32.3048L51.0137 30.3233C51.9898 31.2182 52.9658 31.8574 53.9419 32.2409C54.918 32.6244 55.9157 32.8161 56.9352 32.8161C58.1065 32.8161 59.0609 32.6031 59.7983 32.177C60.5358 31.7295 60.9046 31.0797 60.9046 30.2274C60.9046 29.6096 60.7093 29.1515 60.3189 28.8532C59.9502 28.5549 59.4188 28.3099 58.7247 28.1181C58.0306 27.905 57.2063 27.6707 56.2519 27.415C55.0807 27.0741 54.0937 26.7119 53.2912 26.3284C52.4886 25.9449 51.8813 25.4655 51.4692 24.8902C51.0571 24.3149 50.851 23.5905 50.851 22.717C50.851 21.6516 51.133 20.7568 51.6969 20.0324C52.2609 19.2866 53.0309 18.722 54.007 18.3385C55.0047 17.955 56.1326 17.7632 57.3907 17.7632C58.6487 17.7632 59.7875 17.955 60.807 18.3385C61.8264 18.722 62.7049 19.2866 63.4423 20.0324L62.1409 21.9819C61.4685 21.3001 60.731 20.7994 59.9285 20.4798C59.1259 20.1389 58.2258 19.9685 57.228 19.9685C56.6424 19.9685 56.0676 20.043 55.5036 20.1922C54.9397 20.32 54.4733 20.565 54.1046 20.9272C53.7358 21.2681 53.5515 21.7582 53.5515 22.3974C53.5515 22.93 53.6925 23.3562 53.9744 23.6757C54.2781 23.974 54.7119 24.2297 55.2759 24.4428C55.8615 24.6558 56.5665 24.8902 57.3907 25.1459C58.6704 25.5081 59.7767 25.8703 60.7093 26.2325C61.6637 26.5947 62.4012 27.0634 62.9218 27.6387C63.4423 28.214 63.7026 29.013 63.7026 30.0357C63.7026 31.6123 63.0953 32.8481 61.8806 33.743C60.666 34.6165 59.0609 35.0533 57.0653 35.0533Z" fill="white"/>
<path d="M76.2706 35.0533C74.8824 35.0533 73.646 34.7124 72.5615 34.0306C71.477 33.3488 70.6202 32.4859 69.9912 31.4419V41.5411H67.128V18.0509H69.6658V21.1829C70.3382 20.1602 71.2167 19.3399 72.3012 18.722C73.3858 18.0828 74.5679 17.7632 75.8476 17.7632C77.0189 17.7632 78.0926 17.9976 79.0687 18.4664C80.0447 18.9351 80.8907 19.5743 81.6065 20.3839C82.3222 21.1936 82.8754 22.1204 83.2658 23.1644C83.6779 24.1871 83.884 25.2631 83.884 26.3923C83.884 27.969 83.5586 29.4178 82.9079 30.7388C82.2789 32.0598 81.3896 33.1144 80.24 33.9028C79.0904 34.6698 77.7672 35.0533 76.2706 35.0533ZM75.3921 32.6244C76.2381 32.6244 76.9972 32.4539 77.6696 32.113C78.3637 31.7508 78.9494 31.2821 79.4266 30.7068C79.9254 30.1102 80.305 29.4391 80.5653 28.6934C80.8256 27.9477 80.9557 27.1806 80.9557 26.3923C80.9557 25.5614 80.8039 24.773 80.5002 24.0273C80.2183 23.2816 79.8061 22.6211 79.2639 22.0458C78.7433 21.4705 78.1251 21.0231 77.4093 20.7035C76.7152 20.3626 75.9561 20.1922 75.1318 20.1922C74.6113 20.1922 74.069 20.288 73.5051 20.4798C72.9628 20.6716 72.4422 20.9485 71.9433 21.3107C71.4445 21.6516 71.0215 22.0458 70.6744 22.4932C70.3274 22.9407 70.0996 23.4201 69.9912 23.9314V28.6934C70.3165 29.4178 70.7504 30.0783 71.2926 30.6749C71.8349 31.2714 72.4639 31.7508 73.1797 32.113C73.8955 32.4539 74.633 32.6244 75.3921 32.6244Z" fill="white"/>
<path d="M87.3993 34.7337V18.0509H90.2625V34.7337H87.3993ZM87.3993 14.9189V11.4033H90.2625V14.9189H87.3993Z" fill="white"/>
<path d="M94.9629 11.4033H97.826V30.4192C97.826 31.3354 97.9562 31.9 98.2165 32.113C98.4768 32.3261 98.7913 32.4326 99.16 32.4326C99.6155 32.4326 100.049 32.39 100.461 32.3048C100.874 32.1983 101.221 32.0917 101.503 31.9852L101.958 34.2863C101.481 34.478 100.917 34.6378 100.266 34.7657C99.6155 34.8935 99.0407 34.9574 98.5418 34.9574C97.4356 34.9574 96.5571 34.6485 95.9064 34.0306C95.2774 33.4127 94.9629 32.5498 94.9629 31.4419V11.4033Z" fill="white"/>
<path d="M104.272 11.4033H107.136V30.4192C107.136 31.3354 107.266 31.9 107.526 32.113C107.786 32.3261 108.101 32.4326 108.47 32.4326C108.925 32.4326 109.359 32.39 109.771 32.3048C110.183 32.1983 110.53 32.0917 110.812 31.9852L111.268 34.2863C110.79 34.478 110.226 34.6378 109.576 34.7657C108.925 34.8935 108.35 34.9574 107.851 34.9574C106.745 34.9574 105.867 34.6485 105.216 34.0306C104.587 33.4127 104.272 32.5498 104.272 31.4419V11.4033Z" fill="white"/>
</svg>
