<svg width="18" height="18" viewBox="0 0 18 18" fill="none" xmlns="http://www.w3.org/2000/svg">
<path d="M3.41647 11.05C3.70813 11.3416 3.8748 11.925 3.78313 12.3333L3.3498 14.2083C3.31647 14.375 3.08907 16.1336 3.20813 16.4583C3.2998 16.7083 3.44147 16.9 3.63313 17.0416C4.14147 17.4166 4.93313 17.325 5.85813 16.7833L8.2998 15.3333C8.68314 15.1083 9.31647 15.1083 9.6998 15.3333L12.1415 16.7833C12.6915 17.1083 13.1915 17.2666 13.6165 17.2666C13.9081 17.2666 14.1581 17.1916 14.3665 17.0416C14.8831 16.6666 15.0331 15.8833 14.7915 14.8416L14.2165 12.3333C14.1165 11.925 14.2831 11.35 14.5831 11.05L16.5998 9.02496C17.2331 8.39162 17.4831 7.71663 17.2998 7.13329C17.1081 6.54996 16.5165 6.14996 15.6331 5.99996L14.7915 5.85829C14.2665 5.76662 12.8498 5.53329 12.6081 5.39163C12.3665 5.24996 12.1415 5.04163 12.0331 4.82496L10.5998 1.94996C10.1831 1.12496 9.61647 0.666626 8.9998 0.666626C8.38314 0.666626 7.81647 1.12496 7.3998 1.94996L5.96647 4.82496C5.79147 5.16663 5.33313 5.49996 4.95814 5.56663L2.35813 5.99996C1.4748 6.14996 0.883134 6.54996 0.691468 7.13329C0.508134 7.71663 0.758134 8.39163 1.39147 9.02496L3.41647 11.05Z" fill="#F26E21"/>
</svg>
