<svg width="16" height="17" viewBox="0 0 16 17" fill="none" xmlns="http://www.w3.org/2000/svg">
  <g clip-path="url(#clip0_2225_5955)">
    <path d="M10.1919 11.4572C10.1105 12.1573 9.68631 12.7242 9.02925 13.0045C8.66108 13.1598 8.16941 13.2448 7.77503 13.2195C7.16828 13.1942 6.59949 13.0439 6.06861 12.7768C5.88496 12.6757 5.60195 12.4861 5.38605 12.309C5.33281 12.2584 5.32389 12.2331 5.3625 12.1808C5.37947 12.1501 5.41738 12.0939 5.49509 11.9802C5.61359 11.8126 5.62626 11.7905 5.63888 11.769C5.67678 11.7146 5.73454 11.7096 5.7949 11.7526C5.80317 11.761 5.80317 11.761 5.80773 11.7651C5.81578 11.7739 5.81578 11.7739 5.83743 11.7904C5.85978 11.8075 5.87599 11.8157 5.87995 11.8254C6.44885 12.2709 7.11107 12.5239 7.7796 12.5492C8.70753 12.5367 9.37437 12.1192 9.49722 11.4742C9.62371 10.7721 9.07069 10.1593 7.98924 9.81755C7.64853 9.7164 6.79114 9.37379 6.63283 9.27847C5.89165 8.84413 5.54376 8.27404 5.59434 7.56705C5.6702 6.58999 6.57747 5.86276 7.72413 5.8564C8.23309 5.8564 8.74614 5.96255 9.23286 6.1674C9.40841 6.2421 9.72171 6.41191 9.82591 6.49308C9.88845 6.53944 9.90177 6.58999 9.86321 6.64662C9.85038 6.68117 9.81264 6.73264 9.74749 6.84298C9.65248 6.98793 9.64895 6.99397 9.63171 7.02585C9.59788 7.07906 9.54953 7.08331 9.48515 7.04522C8.96492 6.69124 8.37813 6.51409 7.73701 6.50146C6.94069 6.51409 6.34194 6.98896 6.30338 7.63963C6.29544 8.22414 6.73175 8.64994 7.67665 8.97057C9.59848 9.59001 10.3316 10.3137 10.1919 11.4572ZM7.82212 1.37069C9.07075 1.37069 10.0908 2.55598 10.1413 4.04187H5.50591C5.5505 2.55598 6.57355 1.37069 7.82212 1.37069ZM14.2937 4.32338C14.2937 4.16832 14.1737 4.04187 14.0207 4.04187H14.0107H11.0141C10.9383 2.08143 9.53665 0.514465 7.82212 0.514465C6.10657 0.514465 4.70855 2.08143 4.63378 4.04187H1.62467C1.47376 4.0453 1.35401 4.16897 1.35401 4.32338C1.35401 4.33231 1.35401 4.33622 1.35401 4.34515H1.35059L1.77798 13.8012C1.77798 13.8268 1.78298 13.8526 1.78298 13.8833C1.78298 13.8893 1.7838 13.8912 1.7838 13.9024V13.9169L1.78695 13.9219C1.85129 14.5812 2.32735 15.1068 2.97799 15.1325V15.1375H12.5226C12.5276 15.1375 12.5306 15.1375 12.5355 15.1375C12.5429 15.1375 12.5429 15.1375 12.5484 15.1375H12.5682V15.1325C13.228 15.1164 13.7683 14.5812 13.8198 13.9147L13.8227 13.9024C13.8227 13.8962 13.8227 13.8894 13.8227 13.8833C13.8227 13.8641 13.8277 13.8518 13.8277 13.8318L14.2937 4.33622C14.2937 4.33274 14.2937 4.32736 14.2937 4.32338Z" fill="#EE4D2D"/>
  </g>
  <defs>
    <clipPath id="clip0_2225_5955">
      <rect width="14.5532" height="15.8297" fill="white" transform="translate(0.510742 0.405579)"/>
    </clipPath>
  </defs>
</svg>